<svg width="26" height="20" viewBox="0 0 26 20" fill="none" xmlns="http://www.w3.org/2000/svg">
<path d="M12.7254 0C15.7696 0 18.2219 2.45261 18.2219 5.49722V6.89267C16.4038 6.68124 14.5435 6.59667 12.7254 6.59667C10.9074 6.59667 9.04706 6.68124 7.229 6.89267V5.49722C7.229 2.49489 9.68126 0 12.7254 0Z" fill="#007FFC"/>
<path d="M22.7048 16.0715L23.2545 11.2508C24.4806 11.4622 25.4108 12.4771 25.4108 13.6188C25.4108 14.972 24.1846 16.0715 22.7048 16.0715Z" fill="#007FFC"/>
<path d="M2.70594 16.0715C1.22613 16.0715 0 14.972 0 13.6188C0 12.4348 0.930166 11.4622 2.15629 11.2508L2.70594 16.0715Z" fill="#007FFC"/>
<path d="M20.8009 8.07408C18.0104 7.77807 15.3467 7.65121 12.7676 7.65121C10.1885 7.65121 7.48259 7.77807 4.73437 8.07408C3.8042 8.15865 3.12772 9.00438 3.25456 9.89239L4.10017 18.0959C4.18473 18.8571 4.77665 19.4914 5.57997 19.576C7.94767 19.872 10.3576 19.9988 12.8099 19.9988C15.2622 19.9988 17.6721 19.872 20.0398 19.576C20.8009 19.4914 21.4351 18.8571 21.5196 18.0959L22.3652 9.89239C22.3652 8.96209 21.731 8.15865 20.8009 8.07408ZM8.07451 15.5165C7.39802 15.5165 6.89066 14.8399 6.89066 13.9519C6.89066 13.0639 7.4403 12.3873 8.07451 12.3873C8.70871 12.3873 9.25836 13.0639 9.25836 13.9519C9.25836 14.8399 8.75099 15.5165 8.07451 15.5165ZM15.1353 17.2502C15.1353 17.3348 15.093 17.4194 15.0508 17.4616C15.0085 17.5039 14.9239 17.5462 14.8393 17.5462H10.6536C10.569 17.5462 10.4845 17.5039 10.4422 17.4616C10.3999 17.4194 10.3576 17.3348 10.3576 17.2502V16.4891C10.3576 16.3199 10.4845 16.1931 10.6536 16.1931H10.7382C10.9073 16.1931 11.0341 16.3199 11.0341 16.4891V16.8696H14.4588V16.4891C14.4588 16.3199 14.5857 16.1931 14.7548 16.1931H14.8393C15.0085 16.1931 15.1353 16.3199 15.1353 16.4891V17.2502ZM17.3762 15.5165C16.6997 15.5165 16.1923 14.8399 16.1923 13.9519C16.1923 13.0639 16.742 12.3873 17.3762 12.3873C18.0104 12.3873 18.56 13.0639 18.56 13.9519C18.56 14.8399 18.0526 15.5165 17.3762 15.5165Z" fill="#007FFC"/>
</svg>
